{
  "accessors": [
    {
      "bufferView": 2,
      "componentType": 5126,
      "count": 3551,
      "max": [
        11.250167846679688,
        3.9699721336364746,
        74.80868530273438
      ],
      "min": [
        -11.248550415039063,
        -12.709280967712402,
        50.13182830810547
      ],
      "type": "VEC3"
    },
    {
      "bufferView": 2,
      "byteOffset": 42612,
      "componentType": 5126,
      "count": 3551,
      "max": [
        0.9999940991401672,
        0.9996609687805176,
        1.0
      ],
      "min": [
        -0.9999940395355225,
        -0.9991453886032104,
        -0.9999868869781494
      ],
      "type": "VEC3"
    },
    {
      "bufferView": 1,
      "componentType": 5126,
      "count": 3551,
      "max": [
        0.9863190650939941,
        0.984088659286499
      ],
      "min": [
        0.034755051136016846,
        0.022881314158439636
      ],
      "type": "VEC2"
    },
    {
      "bufferView": 1,
      "byteOffset": 28408,
      "componentType": 5126,
      "count": 3551,
      "max": [
        0.9863190650939941,
        0.984088659286499
      ],
      "min": [
        0.034755051136016846,
        0.022881314158439636
      ],
      "type": "VEC2"
    },
    {
      "bufferView": 0,
      "componentType": 5125,
      "count": 19356,
      "type": "SCALAR"
    },
    {
      "bufferView": 2,
      "byteOffset": 85224,
      "componentType": 5126,
      "count": 1404,
      "max": [
        27.780899047851563,
        7.4754486083984375,
        59.8577766418457
      ],
      "min": [
        -31.693984985351563,
        -2.2091875076293945,
        1.6012475490570068
      ],
      "type": "VEC3"
    },
    {
      "bufferView": 2,
      "byteOffset": 102072,
      "componentType": 5126,
      "count": 1404,
      "max": [
        1.0,
        1.0,
        1.0
      ],
      "min": [
        -1.0,
        -1.0,
        -1.0
      ],
      "type": "VEC3"
    },
    {
      "bufferView": 1,
      "byteOffset": 56816,
      "componentType": 5126,
      "count": 1404,
      "max": [
        0.8824302554130554,
        0.9478926658630371
      ],
      "min": [
        0.20468869805335999,
        0.05998381972312927
      ],
      "type": "VEC2"
    },
    {
      "bufferView": 1,
      "byteOffset": 68048,
      "componentType": 5126,
      "count": 1404,
      "max": [
        0.8824302554130554,
        0.9478926658630371
      ],
      "min": [
        0.20468869805335999,
        0.05998381972312927
      ],
      "type": "VEC2"
    },
    {
      "bufferView": 0,
      "byteOffset": 77424,
      "componentType": 5125,
      "count": 5952,
      "type": "SCALAR"
    },
    {
      "bufferView": 2,
      "byteOffset": 118920,
      "componentType": 5126,
      "count": 6210,
      "max": [
        31.63404083251953,
        8.369645118713379,
        69.55638122558594
      ],
      "min": [
        -29.27020263671875,
        -10.861668586730957,
        -0.0015658438205718994
      ],
      "type": "VEC3"
    },
    {
      "bufferView": 2,
      "byteOffset": 193440,
      "componentType": 5126,
      "count": 6210,
      "max": [
        1.0,
        1.0,
        1.0
      ],
      "min": [
        -1.0,
        -1.0,
        -1.0
      ],
      "type": "VEC3"
    },
    {
      "bufferView": 1,
      "byteOffset": 79280,
      "componentType": 5126,
      "count": 6210,
      "max": [
        0.9920064210891724,
        0.9341096878051758
      ],
      "min": [
        0.026488780975341797,
        0.05730724334716797
      ],
      "type": "VEC2"
    },
    {
      "bufferView": 1,
      "byteOffset": 128960,
      "componentType": 5126,
      "count": 6210,
      "max": [
        0.9920064210891724,
        0.9341096878051758
      ],
      "min": [
        0.026488780975341797,
        0.05730724334716797
      ],
      "type": "VEC2"
    },
    {
      "bufferView": 0,
      "byteOffset": 101232,
      "componentType": 5125,
      "count": 22200,
      "type": "SCALAR"
    },
    {
      "bufferView": 2,
      "byteOffset": 267960,
      "componentType": 5126,
      "count": 3352,
      "max": [
        28.133697509765625,
        8.117481231689453,
        54.66443634033203
      ],
      "min": [
        -27.618026733398438,
        -2.7741944789886475,
        18.547245025634766
      ],
      "type": "VEC3"
    },
    {
      "bufferView": 2,
      "byteOffset": 308184,
      "componentType": 5126,
      "count": 3352,
      "max": [
        0.999500036239624,
        0.9993187785148621,
        0.9887375235557556
      ],
      "min": [
        -0.9994827508926392,
        -0.9998514652252197,
        -0.9997488260269165
      ],
      "type": "VEC3"
    },
    {
      "bufferView": 1,
      "byteOffset": 178640,
      "componentType": 5126,
      "count": 3352,
      "max": [
        0.9752474427223206,
        0.9743883013725281
      ],
      "min": [
        0.061257991939783096,
        0.08159253001213074
      ],
      "type": "VEC2"
    },
    {
      "bufferView": 1,
      "byteOffset": 205456,
      "componentType": 5126,
      "count": 3352,
      "max": [
        0.9752474427223206,
        0.9743883013725281
      ],
      "min": [
        0.061257991939783096,
        0.08159253001213074
      ],
      "type": "VEC2"
    },
    {
      "bufferView": 0,
      "byteOffset": 190032,
      "componentType": 5125,
      "count": 18024,
      "type": "SCALAR"
    },
    {
      "bufferView": 2,
      "byteOffset": 348408,
      "componentType": 5126,
      "count": 185,
      "max": [
        8.586898803710938,
        7.457947731018066,
        38.08555221557617
      ],
      "min": [
        -8.586898803710938,
        -2.393946409225464,
        28.681304931640625
      ],
      "type": "VEC3"
    },
    {
      "bufferView": 2,
      "byteOffset": 350628,
      "componentType": 5126,
      "count": 185,
      "max": [
        0.9697585105895996,
        0.8857826590538025,
        1.0
      ],
      "min": [
        -0.9697585701942444,
        -0.8919699192047119,
        -0.999662458896637
      ],
      "type": "VEC3"
    },
    {
      "bufferView": 1,
      "byteOffset": 232272,
      "componentType": 5126,
      "count": 185,
      "max": [
        0.9737857580184937,
        0.5091610550880432
      ],
      "min": [
        0.015500307083129883,
        0.017446458339691162
      ],
      "type": "VEC2"
    },
    {
      "bufferView": 1,
      "byteOffset": 233752,
      "componentType": 5126,
      "count": 185,
      "max": [
        0.9737857580184937,
        0.5091610550880432
      ],
      "min": [
        0.015500307083129883,
        0.017446458339691162
      ],
      "type": "VEC2"
    },
    {
      "bufferView": 0,
      "byteOffset": 262128,
      "componentType": 5125,
      "count": 912,
      "type": "SCALAR"
    },
    {
      "bufferView": 2,
      "byteOffset": 352848,
      "componentType": 5126,
      "count": 886,
      "max": [
        8.965133666992188,
        6.842283248901367,
        56.7834587097168
      ],
      "min": [
        -8.793655395507813,
        -2.6731960773468018,
        37.4437370300293
      ],
      "type": "VEC3"
    },
    {
      "bufferView": 2,
      "byteOffset": 363480,
      "componentType": 5126,
      "count": 886,
      "max": [
        0.9998464584350586,
        0.9997838735580444,
        0.9980551600456238
      ],
      "min": [
        -0.9997884631156921,
        -0.9998539686203003,
        -0.9999997615814209
      ],
      "type": "VEC3"
    },
    {
      "bufferView": 1,
      "byteOffset": 235232,
      "componentType": 5126,
      "count": 886,
      "max": [
        0.970911979675293,
        0.9911594986915588
      ],
      "min": [
        0.05609774589538574,
        0.5601401925086975
      ],
      "type": "VEC2"
    },
    {
      "bufferView": 1,
      "byteOffset": 242320,
      "componentType": 5126,
      "count": 886,
      "max": [
        0.970911979675293,
        0.9911594986915588
      ],
      "min": [
        0.05609774589538574,
        0.5601401925086975
      ],
      "type": "VEC2"
    },
    {
      "bufferView": 0,
      "byteOffset": 265776,
      "componentType": 5125,
      "count": 5136,
      "type": "SCALAR"
    },
    {
      "bufferView": 2,
      "byteOffset": 374112,
      "componentType": 5126,
      "count": 252,
      "max": [
        15.64080810546875,
        4.765174388885498,
        56.909385681152344
      ],
      "min": [
        -15.380859375,
        -3.3622469902038574,
        16.17734146118164
      ],
      "type": "VEC3"
    },
    {
      "bufferView": 2,
      "byteOffset": 377136,
      "componentType": 5126,
      "count": 252,
      "max": [
        0.9659587144851685,
        0.9984210133552551,
        0.974345862865448
      ],
      "min": [
        -0.9903265237808228,
        -0.9984209537506104,
        -0.9997592568397522
      ],
      "type": "VEC3"
    },
    {
      "bufferView": 1,
      "byteOffset": 249408,
      "componentType": 5126,
      "count": 252,
      "max": [
        0.970706582069397,
        0.904440701007843
      ],
      "min": [
        0.6963224411010742,
        0.021314717829227448
      ],
      "type": "VEC2"
    },
    {
      "bufferView": 1,
      "byteOffset": 251424,
      "componentType": 5126,
      "count": 252,
      "max": [
        0.970706582069397,
        0.904440701007843
      ],
      "min": [
        0.6963224411010742,
        0.021314717829227448
      ],
      "type": "VEC2"
    },
    {
      "bufferView": 0,
      "byteOffset": 286320,
      "componentType": 5125,
      "count": 1104,
      "type": "SCALAR"
    },
    {
      "bufferView": 2,
      "byteOffset": 380160,
      "componentType": 5126,
      "count": 312,
      "max": [
        3.82763671875,
        -4.066542148590088,
        66.51353454589844
      ],
      "min": [
        -3.817596435546875,
        -6.174922943115234,
        63.10609436035156
      ],
      "type": "VEC3"
    },
    {
      "bufferView": 2,
      "byteOffset": 383904,
      "componentType": 5126,
      "count": 312,
      "max": [
        0.999994158744812,
        0.13393518328666687,
        1.0
      ],
      "min": [
        -0.999994158744812,
        -0.8680011034011841,
        -1.0
      ],
      "type": "VEC3"
    },
    {
      "bufferView": 1,
      "byteOffset": 253440,
      "componentType": 5126,
      "count": 312,
      "max": [
        0.9716076850891113,
        0.9193196296691895
      ],
      "min": [
        0.038094401359558105,
        0.18539969623088837
      ],
      "type": "VEC2"
    },
    {
      "bufferView": 0,
      "byteOffset": 290736,
      "componentType": 5125,
      "count": 1584,
      "type": "SCALAR"
    },
    {
      "bufferView": 2,
      "byteOffset": 387648,
      "componentType": 5126,
      "count": 26,
      "max": [
        2.4122161865234375,
        -5.807343482971191,
        65.1028823852539
      ],
      "min": [
        -2.4110870361328125,
        -5.861479759216309,
        64.51738739013672
      ],
      "type": "VEC3"
    },
    {
      "bufferView": 2,
      "byteOffset": 387960,
      "componentType": 5126,
      "count": 26,
      "max": [
        0.6419963240623474,
        -0.7622712254524231,
        0.6446366310119629
      ],
      "min": [
        -0.6472577452659607,
        -0.999994158744812,
        -0.6446326971054077
      ],
      "type": "VEC3"
    },
    {
      "bufferView": 1,
      "byteOffset": 255936,
      "componentType": 5126,
      "count": 26,
      "max": [
        0.2907853126525879,
        0.8378848433494568
      ],
      "min": [
        0.09934669733047485,
        0.7637946009635925
      ],
      "type": "VEC2"
    },
    {
      "bufferView": 0,
      "byteOffset": 297072,
      "componentType": 5125,
      "count": 72,
      "type": "SCALAR"
    }
  ],
  "asset": {
    "extras": {
      "author": "I6NIS (https://sketchfab.com/i6nis)",
      "license": "CC-BY-NC-4.0 (http://creativecommons.org/licenses/by-nc/4.0/)",
      "source": "https://sketchfab.com/3d-models/foxy-the-pirate-67cce327d8d94b6fbe2a595d17687139",
      "title": "Foxy the Pirate"
    },
    "generator": "Sketchfab-12.65.0",
    "version": "2.0"
  },
  "bufferViews": [
    {
      "buffer": 0,
      "byteLength": 297360,
      "name": "floatBufferViews",
      "target": 34963
    },
    {
      "buffer": 0,
      "byteLength": 256144,
      "byteOffset": 297360,
      "byteStride": 8,
      "name": "floatBufferViews",
      "target": 34962
    },
    {
      "buffer": 0,
      "byteLength": 388272,
      "byteOffset": 553504,
      "byteStride": 12,
      "name": "floatBufferViews",
      "target": 34962
    }
  ],
  "buffers": [
    {
      "byteLength": 941776,
      "uri": "scene.bin"
    }
  ],
  "images": [
    {
      "uri": "textures/pasted__Foxy_Head_baseColor.png"
    },
    {
      "uri": "textures/pasted__Foxy_Skeleton_baseColor.png"
    },
    {
      "uri": "textures/pasted__Foxy_Parts_baseColor.png"
    },
    {
      "uri": "textures/pasted__Foxy_Body_baseColor.png"
    },
    {
      "uri": "textures/EyeGlow_baseColor.png"
    }
  ],
  "materials": [
    {
      "doubleSided": true,
      "name": "pasted__Foxy_Head",
      "pbrMetallicRoughness": {
        "baseColorTexture": {
          "index": 0
        },
        "metallicFactor": 0.0,
        "roughnessFactor": 0.6
      }
    },
    {
      "doubleSided": true,
      "name": "pasted__Foxy_Skeleton",
      "pbrMetallicRoughness": {
        "baseColorTexture": {
          "index": 1
        },
        "metallicFactor": 0.0,
        "roughnessFactor": 0.6
      }
    },
    {
      "doubleSided": true,
      "name": "Foxy_Skeleton",
      "pbrMetallicRoughness": {
        "baseColorTexture": {
          "index": 1
        },
        "metallicFactor": 0.0,
        "roughnessFactor": 0.6
      }
    },
    {
      "doubleSided": true,
      "name": "pasted__Foxy_Parts",
      "pbrMetallicRoughness": {
        "baseColorTexture": {
          "index": 2
        },
        "metallicFactor": 0.0,
        "roughnessFactor": 0.6
      }
    },
    {
      "doubleSided": true,
      "name": "pasted__Foxy_Body",
      "pbrMetallicRoughness": {
        "baseColorTexture": {
          "index": 3
        },
        "metallicFactor": 0.0,
        "roughnessFactor": 0.6
      }
    },
    {
      "doubleSided": true,
      "name": "FOXYBODY",
      "pbrMetallicRoughness": {
        "baseColorTexture": {
          "index": 3
        },
        "metallicFactor": 0.0,
        "roughnessFactor": 0.6
      }
    },
    {
      "doubleSided": true,
      "name": "FOXYSKIN",
      "pbrMetallicRoughness": {
        "baseColorTexture": {
          "index": 2
        },
        "metallicFactor": 0.0,
        "roughnessFactor": 0.6
      }
    },
    {
      "doubleSided": true,
      "name": "pasted__Foxy_Eyes",
      "pbrMetallicRoughness": {
        "baseColorTexture": {
          "index": 1
        },
        "metallicFactor": 0.0,
        "roughnessFactor": 0.6
      }
    },
    {
      "doubleSided": true,
      "name": "EyeGlow",
      "pbrMetallicRoughness": {
        "baseColorTexture": {
          "index": 4
        },
        "metallicFactor": 0.0,
        "roughnessFactor": 0.6
      }
    }
  ],
  "meshes": [
    {
      "name": "FoxyModel_pasted__Foxy_Head_0",
      "primitives": [
        {
          "attributes": {
            "NORMAL": 1,
            "POSITION": 0,
            "TEXCOORD_0": 2,
            "TEXCOORD_1": 3
          },
          "indices": 4,
          "material": 0,
          "mode": 4
        }
      ]
    },
    {
      "name": "FoxyModel_pasted__Foxy_Skeleton_0",
      "primitives": [
        {
          "attributes": {
            "NORMAL": 6,
            "POSITION": 5,
            "TEXCOORD_0": 7,
            "TEXCOORD_1": 8
          },
          "indices": 9,
          "material": 1,
          "mode": 4
        }
      ]
    },
    {
      "name": "FoxyModel_Foxy_Skeleton_0",
      "primitives": [
        {
          "attributes": {
            "NORMAL": 11,
            "POSITION": 10,
            "TEXCOORD_0": 12,
            "TEXCOORD_1": 13
          },
          "indices": 14,
          "material": 2,
          "mode": 4
        }
      ]
    },
    {
      "name": "FoxyModel_pasted__Foxy_Parts_0",
      "primitives": [
        {
          "attributes": {
            "NORMAL": 16,
            "POSITION": 15,
            "TEXCOORD_0": 17,
            "TEXCOORD_1": 18
          },
          "indices": 19,
          "material": 3,
          "mode": 4
        }
      ]
    },
    {
      "name": "FoxyModel_pasted__Foxy_Body_0",
      "primitives": [
        {
          "attributes": {
            "NORMAL": 21,
            "POSITION": 20,
            "TEXCOORD_0": 22,
            "TEXCOORD_1": 23
          },
          "indices": 24,
          "material": 4,
          "mode": 4
        }
      ]
    },
    {
      "name": "FoxyModel_FOXYBODY_0",
      "primitives": [
        {
          "attributes": {
            "NORMAL": 26,
            "POSITION": 25,
            "TEXCOORD_0": 27,
            "TEXCOORD_1": 28
          },
          "indices": 29,
          "material": 5,
          "mode": 4
        }
      ]
    },
    {
      "name": "FoxyModel_FOXYSKIN_0",
      "primitives": [
        {
          "attributes": {
            "NORMAL": 31,
            "POSITION": 30,
            "TEXCOORD_0": 32,
            "TEXCOORD_1": 33
          },
          "indices": 34,
          "material": 6,
          "mode": 4
        }
      ]
    },
    {
      "name": "FoxyModel_pasted__Foxy_Eyes_0",
      "primitives": [
        {
          "attributes": {
            "NORMAL": 36,
            "POSITION": 35,
            "TEXCOORD_0": 37
          },
          "indices": 38,
          "material": 7,
          "mode": 4
        }
      ]
    },
    {
      "name": "FoxyModel_EyeGlow_0",
      "primitives": [
        {
          "attributes": {
            "NORMAL": 40,
            "POSITION": 39,
            "TEXCOORD_0": 41
          },
          "indices": 42,
          "material": 8,
          "mode": 4
        }
      ]
    }
  ],
  "nodes": [
    {
      "children": [
        1
      ],
      "matrix": [
        0.0,
        2.220446049250313e-16,
        -1.0,
        0.0,
        -1.0,
        0.0,
        0.0,
        0.0,
        0.0,
        1.0,
        2.220446049250313e-16,
        0.0,
        0.0,
        0.0,
        0.0,
        1.0
      ],
      "name": "Sketchfab_model"
    },
    {
      "children": [
        2
      ],
      "matrix": [
        1.0,
        0.0,
        0.0,
        0.0,
        0.0,
        0.0,
        1.0,
        0.0,
        0.0,
        -1.0,
        0.0,
        0.0,
        0.0,
        0.0,
        0.0,
        1.0
      ],
      "name": "ad104f7e7b574b8aa721f76be85e5ea1.fbx"
    },
    {
      "children": [
        3
      ],
      "name": "RootNode"
    },
    {
      "children": [
        4,
        5,
        6,
        7,
        8,
        9,
        10,
        11,
        12
      ],
      "matrix": [
        1.0,
        0.0,
        0.0,
        0.0,
        0.0,
        2.220446049250313e-16,
        -1.0,
        0.0,
        0.0,
        1.0,
        2.220446049250313e-16,
        0.0,
        0.0,
        0.0,
        0.0,
        1.0
      ],
      "name": "FoxyModel"
    },
    {
      "mesh": 0,
      "name": "FoxyModel_pasted__Foxy_Head_0"
    },
    {
      "mesh": 1,
      "name": "FoxyModel_pasted__Foxy_Skeleton_0"
    },
    {
      "mesh": 2,
      "name": "FoxyModel_Foxy_Skeleton_0"
    },
    {
      "mesh": 3,
      "name": "FoxyModel_pasted__Foxy_Parts_0"
    },
    {
      "mesh": 4,
      "name": "FoxyModel_pasted__Foxy_Body_0"
    },
    {
      "mesh": 5,
      "name": "FoxyModel_FOXYBODY_0"
    },
    {
      "mesh": 6,
      "name": "FoxyModel_FOXYSKIN_0"
    },
    {
      "mesh": 7,
      "name": "FoxyModel_pasted__Foxy_Eyes_0"
    },
    {
      "mesh": 8,
      "name": "FoxyModel_EyeGlow_0"
    }
  ],
  "samplers": [
    {
      "magFilter": 9729,
      "minFilter": 9987,
      "wrapS": 10497,
      "wrapT": 10497
    }
  ],
  "scene": 0,
  "scenes": [
    {
      "name": "Sketchfab_Scene",
      "nodes": [
        0
      ]
    }
  ],
  "textures": [
    {
      "sampler": 0,
      "source": 0
    },
    {
      "sampler": 0,
      "source": 1
    },
    {
      "sampler": 0,
      "source": 2
    },
    {
      "sampler": 0,
      "source": 3
    },
    {
      "sampler": 0,
      "source": 4
    }
  ]
}
